<svg width="512" height="153" viewBox="0 0 512 153" fill="none" xmlns="http://www.w3.org/2000/svg">
<path d="M206.627 101.754C205.471 101.754 204.894 101.118 204.894 99.8472V53.9468C204.894 52.6756 205.471 52.04 206.627 52.04H221.188C229.046 52.04 234.35 53.369 237.1 56.0269C239.85 58.6616 241.226 62.2902 241.226 66.9126C241.226 71.535 239.85 75.1751 237.1 77.833C234.35 80.4678 229.046 81.7852 221.188 81.7852H211.55V99.8472C211.55 101.118 210.972 101.754 209.816 101.754H206.627ZM211.55 76.0996H221.292C226.376 76.0996 229.843 75.3831 231.692 73.9502C233.541 72.4941 234.465 70.1483 234.465 66.9126C234.465 63.6769 233.541 61.3426 231.692 59.9097C229.843 58.4536 226.376 57.7256 221.292 57.7256H211.55V76.0996Z" fill="#465968"/>
<path d="M251.973 101.754C250.817 101.754 250.239 101.118 250.239 99.8472V53.9468C250.239 52.6756 250.817 52.04 251.973 52.04H282.307C283.578 52.04 284.214 52.5601 284.214 53.6001V56.1655C284.214 57.2056 283.578 57.7256 282.307 57.7256H256.896V73.1182H280.227C281.498 73.1182 282.134 73.6382 282.134 74.6782V77.2437C282.134 78.2837 281.498 78.8037 280.227 78.8037H256.896V96.0684H283.347C284.618 96.0684 285.254 96.5884 285.254 97.6284V100.194C285.254 101.234 284.618 101.754 283.347 101.754H251.973Z" fill="#465968"/>
<path d="M296.001 101.754C294.845 101.754 294.268 101.118 294.268 99.8472V53.9468C294.268 52.6756 294.845 52.04 296.001 52.04H312.746C319.425 52.04 324.255 53.2881 327.237 55.7842C330.241 58.2803 331.744 61.5737 331.744 65.6646C331.744 69.27 330.53 72.2977 328.104 74.7476C325.7 77.1974 322.268 78.6073 317.807 78.9771V79.0464C320.165 80.8029 321.725 82.1434 322.487 83.0679C323.25 83.9692 324.105 85.1942 325.053 86.7427L332.888 99.4658C333.835 100.991 333.627 101.754 332.264 101.754H328.312C327.225 101.754 326.416 101.303 325.885 100.402L318.674 88.0254C317.634 86.2458 316.143 84.5008 314.202 82.7905C312.26 81.0802 309.845 80.2251 306.956 80.2251H300.924V99.8472C300.924 101.118 300.346 101.754 299.19 101.754H296.001ZM300.924 74.5396H310.943C315.45 74.5396 318.917 73.9502 321.343 72.7715C323.77 71.5697 324.983 69.062 324.983 65.2485C324.983 62.3364 323.874 60.3604 321.655 59.3203C319.437 58.2572 316.42 57.7256 312.607 57.7256H300.924V74.5396Z" fill="#465968"/>
<path d="M344.328 101.754C343.173 101.754 342.595 101.118 342.595 99.8472V53.9468C342.595 52.6756 343.173 52.04 344.328 52.04H372.583C373.854 52.04 374.489 52.5601 374.489 53.6001V56.1655C374.489 57.2056 373.854 57.7256 372.583 57.7256H349.251V74.1582H369.601C370.872 74.1582 371.508 74.6782 371.508 75.7183V78.2837C371.508 79.3237 370.872 79.8438 369.601 79.8438H349.251V99.8472C349.251 101.118 348.673 101.754 347.518 101.754H344.328Z" fill="#465968"/>
<path d="M384.751 101.754C383.595 101.754 383.018 101.118 383.018 99.8472V53.9468C383.018 52.6756 383.595 52.04 384.751 52.04H415.085C416.357 52.04 416.992 52.5601 416.992 53.6001V56.1655C416.992 57.2056 416.357 57.7256 415.085 57.7256H389.674V73.1182H413.005C414.277 73.1182 414.912 73.6382 414.912 74.6782V77.2437C414.912 78.2837 414.277 78.8037 413.005 78.8037H389.674V96.0684H416.125C417.397 96.0684 418.032 96.5884 418.032 97.6284V100.194C418.032 101.234 417.397 101.754 416.125 101.754H384.751Z" fill="#465968"/>
<path d="M424.342 76.897C424.342 68.8078 426.341 62.4751 430.339 57.8989C434.361 53.2996 440.127 51 447.639 51C452.03 51 455.659 51.7511 458.524 53.2534C461.39 54.7326 463.447 56.7664 464.695 59.355C465.342 60.6955 465.238 61.62 464.383 62.1284L461.645 63.7231C460.72 64.2547 459.9 63.8156 459.183 62.4058C458.42 60.9497 457.172 59.5861 455.439 58.3149C453.706 57.0438 451.221 56.4082 447.985 56.4082C442.207 56.4082 438.001 58.2109 435.366 61.8164C432.755 65.3988 431.449 70.4256 431.449 76.897C431.449 83.3683 432.755 88.4067 435.366 92.0122C438.001 95.5946 442.207 97.3857 447.985 97.3857C451.313 97.3857 453.971 96.623 455.959 95.0977C457.97 93.5723 459.426 91.9775 460.327 90.3135C461.044 88.973 461.876 88.5685 462.823 89.1001L465.701 90.7295C466.533 91.2148 466.602 92.1393 465.909 93.5029C464.545 96.1608 462.326 98.3796 459.252 100.159C456.179 101.916 452.307 102.794 447.639 102.794C440.127 102.794 434.361 100.506 430.339 95.9297C426.341 91.3304 424.342 84.9862 424.342 76.897Z" fill="#465968"/>
<path d="M472.912 58.0029C471.64 58.0029 471.005 57.4829 471.005 56.4429V53.6001C471.005 52.5601 471.64 52.04 472.912 52.04H509.59C510.861 52.04 511.497 52.5601 511.497 53.6001V56.4429C511.497 57.4829 510.861 58.0029 509.59 58.0029H494.579V99.8472C494.579 101.118 494.001 101.754 492.846 101.754H489.656C488.501 101.754 487.923 101.118 487.923 99.8472V58.0029H472.912Z" fill="#465968"/>
<path d="M30.5997 153H0V122.401H30.5997V91.8002H61.2004V61.2006H91.7996V30.6002H122.4V3.05176e-05H153V30.6002V61.2006V91.8002V122.401V153H122.4H91.7996H61.2004H30.5997Z" fill="url(#paint0_angular_2_33)" fill-opacity="0.53"/>
<defs>
<radialGradient id="paint0_angular_2_33" cx="0" cy="0" r="1" gradientUnits="userSpaceOnUse" gradientTransform="translate(76.5 76.5) rotate(-90) scale(76.5 76.5)">
<stop stop-color="#FAFEFF"/>
<stop offset="0.614583" stop-color="#3B8FFF"/>
</radialGradient>
</defs>
</svg>
